<svg id="Group_43" data-name="Group 43" xmlns="http://www.w3.org/2000/svg" width="55" height="40" viewBox="0 0 55 40">
  <g id="Polygon_8" data-name="Polygon 8" fill="#fff">
    <path d="M 40.98698806762695 39.5 L 14.01301097869873 39.5 L 0.6067612767219543 20 L 14.01301097869873 0.5 L 40.98698806762695 0.5 L 54.39323806762695 20 L 40.98698806762695 39.5 Z" stroke="none"/>
    <path d="M 14.27602767944336 1 L 1.213527679443359 20 L 14.27602767944336 39 L 40.72396850585938 39 L 53.78647232055664 20 L 40.72396850585938 1 L 14.27602767944336 1 M 13.75 0 L 41.25 0 L 55 20 L 41.25 40 L 13.75 40 L 0 20 L 13.75 0 Z" stroke="none" fill="#dedede"/>
  </g>
  <path id="handshake" d="M20.391,0a1.4,1.4,0,0,1,1.031.422L24,3v9.094a2.121,2.121,0,0,0-.375-.375L16.781,6.188,18,5.063a.7.7,0,0,0,.094-1.078.741.741,0,0,0-.539-.234.839.839,0,0,0-.539.188l-3.75,3.422v.047a2.036,2.036,0,0,1-1.406.422,1.776,1.776,0,0,1-1.266-.562,2.02,2.02,0,0,1-.469-1.336,1.62,1.62,0,0,1,.609-1.289V4.594L15.328.375A1.5,1.5,0,0,1,16.359,0ZM25.5,3H30V15H27a1.521,1.521,0,0,1-1.5-1.5Zm1.688,10.313a.872.872,0,0,0,.563.188.763.763,0,1,0-.75-.75A.872.872,0,0,0,27.188,13.313ZM0,15V3H4.5V13.5a1.442,1.442,0,0,1-.445,1.055A1.442,1.442,0,0,1,3,15Zm2.766-2.766A.624.624,0,0,0,2.25,12a.75.75,0,1,0,0,1.5A.722.722,0,0,0,3,12.75.624.624,0,0,0,2.766,12.234Zm19.922.656a1.421,1.421,0,0,1,.539.984A1.457,1.457,0,0,1,22.875,15l-.422.563a1.44,1.44,0,0,1-1.008.539,1.353,1.353,0,0,1-1.1-.352l-.234-.187-1.5,1.781A1.637,1.637,0,0,1,17.461,18a1.611,1.611,0,0,1-1.289-.375l-.844-.75A2.962,2.962,0,0,1,13.289,18a2.752,2.752,0,0,1-2.18-.656L6.844,13.5H6V3L8.578.422A1.4,1.4,0,0,1,9.609,0h3.938L9.7,3.516A3.189,3.189,0,0,0,8.625,5.859a3.326,3.326,0,0,0,3.211,3.492A3.368,3.368,0,0,0,14.3,8.484L15.7,7.219ZM30,18" transform="translate(12.5 11)" fill="#071e5c"/>
</svg>
