<svg xmlns="http://www.w3.org/2000/svg" width="92.23" height="33.79" viewBox="0 0 92.23 33.79">
  <g id="g156" transform="translate(-377.853 -702.285)">
    <path id="path158" d="M385.344,706.524v16.831c.919.472,6.894,4.068,7.211,4.078.255.008,3.129-1.743,3.638-2.031a31.4,31.4,0,0,0,3.59-2.169V715.11c-.07-.247-6.939-4.126-6.994-4.136-.519-.1-1.63.67-2.3,1.062a10.3,10.3,0,0,1-1.371.753l0-8.5a22.486,22.486,0,0,0-3.776,2.24Zm3.761,10.6v4.093c.607.23,3.171,1.886,3.445,1.895.226.007,3-1.674,3.486-1.928l.007-3.855c-.054-.273-.482-.434-.715-.564-.326-.181-.581-.334-.874-.51-.243-.146-1.626-.968-1.776-1.005-.4-.1-2.716,1.546-3.573,1.875Z" fill="#c90015" fill-rule="evenodd"/>
    <path id="path160" d="M377.9,710.706c-.1,3.861,0,9.21,0,13.174l0,3.737c.834.6,2.055,1.125,2.723,1.527,1.093.659,11.323,6.7,11.923,6.931.171-.084.273-.161.412-.232l10.505-6.035c1.159-.648,2.53-1.381,3.628-2.112a34.3,34.3,0,0,0-3.687-1.1c-1.715-.495-1-.451-3.321.85-2.065,1.157-4.137,2.339-6.148,3.548-1.65.992-1.221.9-3.114-.219-1.051-.622-2.034-1.168-3.1-1.793-.63-.37-6.014-3.352-6.081-3.623v-12.37a6.982,6.982,0,0,1,2.082-1.266c-.046-1.411-.013-2.85,0-4.326l-5.822,3.311Z" fill="#fff" fill-rule="evenodd"/>
    <path id="path162" d="M391.124,703.2l.007,4.15c2-.713.275-1.423,3.8.576l5.62,3.244c.384.229.66.31.969.5.38.239.452.5,1.047.357.53-.123,4.333-1.212,4.547-1.354a27.861,27.861,0,0,0-2.967-1.713c-2.925-1.82-6.007-3.482-8.991-5.236-.694-.408-1.3-.728-1.987-1.151s-.471-.427-1.583.214c-.028.016-.222.136-.227.14-.282.226-.079-.027-.235.268Z" fill="#fff" fill-rule="evenodd"/>
    <path id="path164" d="M424.452,717.953a5.21,5.21,0,0,0-4.906-3.219,5.514,5.514,0,1,0-.029,11.029,5.228,5.228,0,0,0,4.878-3.133h-2.274a3.136,3.136,0,0,1-2.546,1.23,3.617,3.617,0,0,1-3.6-3.648,3.57,3.57,0,0,1,3.591-3.576,3.322,3.322,0,0,1,2.661,1.316h2.232Zm1.3,2.16V721.8h3.977v-1.688Zm5.965,5.393h2.646c3.39,0,4.22-1.688,4.22-3.219a2.6,2.6,0,0,0-1.8-2.56,2.2,2.2,0,0,0,1.159-2.017c0-2.775-3.018-2.789-3.676-2.789h-2.546Zm1.96-1.9v-2.7h1.273c1.531,0,1.674.973,1.674,1.373,0,1.316-1.445,1.33-1.674,1.33h-1.273Zm0-4.606v-2.174h.915c.429,0,1.388.057,1.388,1.087,0,.272-.1,1.087-1.388,1.087Zm6.137,6.508h1.9v-4.277c0-.429-.029-2.074,1.7-2.06v-1.845a1.844,1.844,0,0,0-1.831.973h-.029v-.715h-1.745v7.925Zm12.474-7.925h-1.745V718.7h-.029a2.9,2.9,0,0,0-2.589-1.373,4.041,4.041,0,0,0-3.934,4.291,3.929,3.929,0,0,0,3.876,4.148,3.227,3.227,0,0,0,2.646-1.33h.029v1.073h1.745Zm-4.062,1.545a2.419,2.419,0,1,1-2.332,2.489A2.329,2.329,0,0,1,448.226,719.126Zm5.607,6.38h1.9v-3.7l2.718,3.7H461l-3.333-4.048,2.861-3.877h-2.246l-2.546,3.734v-6.394h-1.9v10.585Zm16.207-3.118a5.562,5.562,0,0,0,.043-.844,4.03,4.03,0,0,0-4.077-4.22,4.233,4.233,0,0,0-4.22,4.277,4.187,4.187,0,0,0,8.039,1.616H467.68a2.222,2.222,0,0,1-1.774.744,2.052,2.052,0,0,1-2.074-1.573ZM463.8,720.7a2.272,2.272,0,0,1,2.2-1.573A2.1,2.1,0,0,1,468.1,720.7H463.8Z" fill="#fff" fill-rule="evenodd"/>
  </g>
</svg>
