<svg id="Group_42" data-name="Group 42" xmlns="http://www.w3.org/2000/svg" width="55" height="40" viewBox="0 0 55 40">
  <g id="Polygon_9" data-name="Polygon 9" fill="#fff">
    <path d="M 40.98698806762695 39.5 L 14.01301097869873 39.5 L 0.6067612767219543 20 L 14.01301097869873 0.5 L 40.98698806762695 0.5 L 54.39323806762695 20 L 40.98698806762695 39.5 Z" stroke="none"/>
    <path d="M 14.27602767944336 1 L 1.213527679443359 20 L 14.27602767944336 39 L 40.72396850585938 39 L 53.78647232055664 20 L 40.72396850585938 1 L 14.27602767944336 1 M 13.75 0 L 41.25 0 L 55 20 L 41.25 40 L 13.75 40 L 0 20 L 13.75 0 Z" stroke="none" fill="#dedede"/>
  </g>
  <path id="hand_peace" data-name="hand peace" d="M16.981,9A2.9,2.9,0,0,1,18.9,9a3.163,3.163,0,0,1,2.109,3v3.281a2.549,2.549,0,0,1-.094.7l-1.266,5.578a2.971,2.971,0,0,1-1.1,1.758,3.074,3.074,0,0,1-1.945.68H7a2.917,2.917,0,0,1-2.719-1.594L1.7,17.813Q.387,15.516,2.872,13.5L.247,6.7A3.445,3.445,0,0,1,.293,4.031,3.271,3.271,0,0,1,2.168,2.2a3.852,3.852,0,0,1,1.8-.211,3.184,3.184,0,0,1,1.594.7A3.347,3.347,0,0,1,6.622,4.172l.891,3.7L7.09,3.469A3.348,3.348,0,0,1,8.1,1.008a3.4,3.4,0,0,1,4.828,0,3.348,3.348,0,0,1,1.008,2.461V7.594a2.936,2.936,0,0,1,1.758.258A3.064,3.064,0,0,1,16.981,9Zm1.781,6.281V12a.836.836,0,0,0-.422-.8.861.861,0,0,0-.867,0,.827.827,0,0,0-.445.8.722.722,0,0,1-.75.75H16a.722.722,0,0,1-.75-.75V10.688a.827.827,0,0,0-.445-.8.861.861,0,0,0-.867,0,.836.836,0,0,0-.422.8V12a.722.722,0,0,1-.75.75h-.328a.755.755,0,0,1-.516-.211A.693.693,0,0,1,11.684,12V3.469a1.173,1.173,0,1,0-2.344,0V12a.693.693,0,0,1-.234.539.755.755,0,0,1-.516.211H8.028a.7.7,0,0,1-.7-.469L4.559,4.969A1.105,1.105,0,0,0,3.622,4.2a1.212,1.212,0,0,0-1.1.445,1.176,1.176,0,0,0-.164,1.266l3,7.781a.885.885,0,0,1,.047.281.71.71,0,0,1-.281.563L3.856,15.563a.851.851,0,0,0-.187,1.172l2.578,4.594A.8.8,0,0,0,7,21.75h9.609a.782.782,0,0,0,.844-.7l1.266-5.578A.416.416,0,0,0,18.762,15.281ZM20.965,21" transform="translate(16.5 8)" fill="#071e5c"/>
</svg>
