<svg id="Group_41" data-name="Group 41" xmlns="http://www.w3.org/2000/svg" width="55" height="40" viewBox="0 0 55 40">
  <g id="Polygon_6" data-name="Polygon 6" fill="#fff">
    <path d="M 40.98698806762695 39.5 L 14.01301097869873 39.5 L 0.6067612767219543 20 L 14.01301097869873 0.5 L 40.98698806762695 0.5 L 54.39323806762695 20 L 40.98698806762695 39.5 Z" stroke="none"/>
    <path d="M 14.27602767944336 1 L 1.213527679443359 20 L 14.27602767944336 39 L 40.72396850585938 39 L 53.78647232055664 20 L 40.72396850585938 1 L 14.27602767944336 1 M 13.75 0 L 41.25 0 L 55 20 L 41.25 40 L 13.75 40 L 0 20 L 13.75 0 Z" stroke="none" fill="#dedede"/>
  </g>
  <path id="badge_check" data-name="badge check" d="M2.486,16.429a2,2,0,0,0-.029.329v.329a4.678,4.678,0,0,0,1.657,3.643,4.657,4.657,0,0,0,3.857,1.186,4.9,4.9,0,0,0,1.757,1.8,4.8,4.8,0,0,0,4.943,0,4.9,4.9,0,0,0,1.757-1.8,4.9,4.9,0,0,0,5.514-4.829v-.329a2,2,0,0,0-.029-.329,4.9,4.9,0,0,0,1.8-1.757,4.8,4.8,0,0,0,0-4.943,4.9,4.9,0,0,0-1.8-1.757,2,2,0,0,0,.029-.329V7.314a4.678,4.678,0,0,0-1.657-3.643,4.657,4.657,0,0,0-3.857-1.186,4.9,4.9,0,0,0-1.757-1.8,4.8,4.8,0,0,0-4.943,0,4.9,4.9,0,0,0-1.757,1.8A4.657,4.657,0,0,0,4.114,3.671,4.678,4.678,0,0,0,2.457,7.314v.329a2,2,0,0,0,.029.329,4.9,4.9,0,0,0-1.8,1.757,4.8,4.8,0,0,0,0,4.943A4.9,4.9,0,0,0,2.486,16.429ZM4.257,9.857,5.6,9.486,5.057,8.2a2.038,2.038,0,0,1-.129-.429,2.475,2.475,0,0,1-.043-.457A2.439,2.439,0,0,1,7.314,4.886a2.475,2.475,0,0,1,.457.043,2.038,2.038,0,0,1,.429.129L9.486,5.6l.371-1.343a2.286,2.286,0,0,1,.857-1.3,2.457,2.457,0,0,1,2.971,0,2.286,2.286,0,0,1,.857,1.3L14.914,5.6,16.2,5.057a2.038,2.038,0,0,1,.429-.129,2.475,2.475,0,0,1,.457-.043,2.439,2.439,0,0,1,2.429,2.429,2.476,2.476,0,0,1-.043.457,2.038,2.038,0,0,1-.129.429L18.8,9.486l1.343.371a2.286,2.286,0,0,1,1.3.857,2.457,2.457,0,0,1,0,2.971,2.286,2.286,0,0,1-1.3.857l-1.343.371.543,1.286a2.038,2.038,0,0,1,.129.429,2.476,2.476,0,0,1,.043.457,2.439,2.439,0,0,1-2.429,2.429,2.476,2.476,0,0,1-.457-.043,2.038,2.038,0,0,1-.429-.129L14.914,18.8l-.371,1.343a2.286,2.286,0,0,1-.857,1.3,2.457,2.457,0,0,1-2.971,0,2.286,2.286,0,0,1-.857-1.3L9.486,18.8,8.2,19.343a2.038,2.038,0,0,1-.429.129,2.476,2.476,0,0,1-.457.043,2.439,2.439,0,0,1-2.429-2.429,2.475,2.475,0,0,1,.043-.457,2.038,2.038,0,0,1,.129-.429L5.6,14.914l-1.343-.371a2.286,2.286,0,0,1-1.3-.857,2.457,2.457,0,0,1,0-2.971A2.286,2.286,0,0,1,4.257,9.857Zm12.514.771L15.057,8.886l-4.086,4.029L9.4,11.343,7.686,13.057l3.286,3.314ZM26.829,25" transform="translate(15.492 8)" fill="#071e5c"/>
</svg>
